<svg id="Ebene_1" data-name="Ebene 1" xmlns="http://www.w3.org/2000/svg" viewBox="0 0 228.3556 228.3556"><defs><style>.cls-1{fill:#1d1d1b;}</style></defs><polygon class="cls-1" points="149.07 124.219 149.03 124.219 149.03 124.179 149.07 124.219"/><polygon class="cls-1" points="137.99 128.739 137.97 128.739 137.97 128.719 137.99 128.739"/><polygon class="cls-1" points="34.86 26.059 34.84 26.079 34.84 26.059 34.86 26.059"/><polygon class="cls-1" points="149.03 95.159 149.03 95.179 149.02 95.169 149.03 95.159"/><polygon class="cls-1" points="186.12 148.759 186.12 148.789 186.09 148.759 186.12 148.759"/><polygon class="cls-1" points="149.03 124.159 149.03 124.179 149.02 124.169 149.03 124.159"/><polygon class="cls-1" points="153.1 143.799 153.08 143.819 153.06 143.799 153.1 143.799"/><polygon class="cls-1" points="194.68 157.309 194.68 157.339 194.65 157.309 194.68 157.309"/><polygon class="cls-1" points="92.78 192.389 92.78 192.449 92.75 192.419 92.78 192.389"/><polygon class="cls-1" points="205.74 152.789 205.74 152.819 205.71 152.789 205.74 152.789"/><polygon class="cls-1" points="215.67 147.169 215.67 147.219 215.62 147.169 215.67 147.169"/><polygon class="cls-1" points="194.7 186.359 194.68 186.369 194.68 186.339 194.7 186.359"/><polygon class="cls-1" points="190.67 205.979 190.64 206.009 190.61 205.979 190.67 205.979"/><polygon class="cls-1" points="157.62 132.779 157.56 132.779 157.56 132.719 157.62 132.779"/><polygon class="cls-1" points="194.7 157.359 194.68 157.379 194.68 157.339 194.7 157.359"/><path class="cls-1" d="M186.09,194.9587H116.62l2.22-5h65.19l5.65-5.66v-24.89l-5.65-5.65H147.48v-.01l-19.38-19.39h-.06v-49.33h.01l19.43-19.43v-.01h44.06l3.4-3.4.02-.02h9.01a5.848,5.848,0,1,1,.14,5h-7.08l-3.42,3.42H149.55l-16.51,16.51v45.14l16.52,16.52h36.53l.03.03,8.53,8.52.03.03v29.03Z"/><path class="cls-1" d="M106.24,205.9187l-13.45-13.46-.01-.01V48.2788a5.85,5.85,0,1,1,5,0v142.11l10.59,10.59h80.22l12.15-12.14v-33.95l-11.09-11.09H153.06l-15.07-15.06-.02-.02v-38.09l15.11-15.11.03.03h42.66a5.85,5.85,0,1,1,0,5H155.12l-12.15,12.15v33.94l12.15,12.16h36.6l14.02,14.02v38.07h-.01l.01.01-15.07,15.08H106.26v-.08Z"/><path class="cls-1" d="M215.67,147.2187v49.28l-19.43,19.43v.01H99.9l-.01.01-3.84-3.84,3.54-3.53,2.36,2.36h92.21l16.51-16.51v-45.14l-16.51-16.51H157.62l-.06-.06-8.49-8.5-.04-.04v-29.02l8.59-8.59h35.99l3.42,3.42h7.08a5.8519,5.8519,0,1,1-.14,5h-9.01l-.02-.02-3.4-3.4H159.69l-5.66,5.66v24.89l5.67,5.66h36.52v.02l.02-.02,19.38,19.39Z"/><circle class="cls-1" cx="91.97" cy="204.4887" r="5.85" transform="translate(-71.2538 50.7613) rotate(-22.5)"/><polygon class="cls-1" points="109.46 180.529 104.46 182.449 104.46 160.029 104.48 160.029 104.48 51.139 109.48 51.139 109.48 166.139 109.46 166.139 109.46 180.529"/><path class="cls-1" d="M22.98,18.2487a5.85,5.85,0,0,1,11.29-2.15H51.33l.85.85,2.57,2.57h81.06l2.57-2.57.85-.85H156.3a5.8461,5.8461,0,1,1-.07,5H141.3l-3.4,3.4-.02.02H52.68l-.02-.02-3.4-3.4H33.93a5.8444,5.8444,0,0,1-10.95-2.85Z"/><path class="cls-1" d="M142.71,34.4587H47.85l-.69-.69-2.7-2.71H36.93l-3.42,3.42H24.23a6.0121,6.0121,0,1,1-.13-5h7.34l3.42-3.42H46.54v.03l.01-.01,3.38,3.38h90.7l3.38-3.38.01.01v-.03H155.7l.02.02,3.4,3.4h7.44a5.8513,5.8513,0,1,1,.02,5h-9.53l-3.42-3.42H146.1l-2.7,2.71Z"/><circle class="cls-1" cx="110.31" cy="189.1087" r="5.85"/><path class="cls-1" d="M144.57,45.4987H103.5v-5h41.07a5.85,5.85,0,1,1,0,5Z"/><polygon class="cls-1" points="87.89 196.879 84.35 200.409 80.19 196.249 80.2 196.239 80.18 196.239 80.18 51.139 85.18 51.139 85.18 194.169 87.89 196.879"/><path class="cls-1" d="M87.06,45.4987H45.99a5.85,5.85,0,1,1,0-5H87.06Z"/></svg>